<svg width="38" height="38" viewBox="0 0 38 38" fill="none" xmlns="http://www.w3.org/2000/svg">
<g filter="url(#filter0_d_6887_4)">
<circle cx="19" cy="15" r="15" fill="#73A56C"/>
</g>
<g filter="url(#filter1_d_6887_4)">
<path d="M21.6667 10.5556C22.1382 10.5556 22.5903 10.7429 22.9237 11.0763C23.2571 11.4097 23.4444 11.8618 23.4444 12.3333M21.6667 7C23.0812 7 24.4377 7.5619 25.4379 8.5621C26.4381 9.56229 27 10.9188 27 12.3333M12.7778 7.88889H16.3333L18.1111 12.3333L15.8889 13.6667C16.8409 15.5969 18.4031 17.1591 20.3333 18.1111L21.6667 15.8889L26.1111 17.6667V21.2222C26.1111 21.6937 25.9238 22.1459 25.5904 22.4793C25.257 22.8127 24.8048 23 24.3333 23C20.866 22.7893 17.5957 21.3169 15.1394 18.8606C12.6831 16.4043 11.2107 13.134 11 9.66667C11 9.19517 11.1873 8.74299 11.5207 8.40959C11.8541 8.07619 12.3063 7.88889 12.7778 7.88889Z" stroke="white" stroke-width="2" stroke-linecap="round" stroke-linejoin="round" shape-rendering="crispEdges"/>
</g>
<defs>
<filter id="filter0_d_6887_4" x="0" y="0" width="38" height="38" filterUnits="userSpaceOnUse" color-interpolation-filters="sRGB">
<feFlood flood-opacity="0" result="BackgroundImageFix"/>
<feColorMatrix in="SourceAlpha" type="matrix" values="0 0 0 0 0 0 0 0 0 0 0 0 0 0 0 0 0 0 127 0" result="hardAlpha"/>
<feOffset dy="4"/>
<feGaussianBlur stdDeviation="2"/>
<feComposite in2="hardAlpha" operator="out"/>
<feColorMatrix type="matrix" values="0 0 0 0 0 0 0 0 0 0 0 0 0 0 0 0 0 0 0.25 0"/>
<feBlend mode="normal" in2="BackgroundImageFix" result="effect1_dropShadow_6887_4"/>
<feBlend mode="normal" in="SourceGraphic" in2="effect1_dropShadow_6887_4" result="shape"/>
</filter>
<filter id="filter1_d_6887_4" x="6" y="6" width="26" height="26" filterUnits="userSpaceOnUse" color-interpolation-filters="sRGB">
<feFlood flood-opacity="0" result="BackgroundImageFix"/>
<feColorMatrix in="SourceAlpha" type="matrix" values="0 0 0 0 0 0 0 0 0 0 0 0 0 0 0 0 0 0 127 0" result="hardAlpha"/>
<feOffset dy="4"/>
<feGaussianBlur stdDeviation="2"/>
<feComposite in2="hardAlpha" operator="out"/>
<feColorMatrix type="matrix" values="0 0 0 0 0 0 0 0 0 0 0 0 0 0 0 0 0 0 0.25 0"/>
<feBlend mode="normal" in2="BackgroundImageFix" result="effect1_dropShadow_6887_4"/>
<feBlend mode="normal" in="SourceGraphic" in2="effect1_dropShadow_6887_4" result="shape"/>
</filter>
</defs>
</svg>
